<mxfile host="app.diagrams.net" modified="2024-04-27T06:56:15.242Z" agent="Mozilla/5.0 (Macintosh; Intel Mac OS X 10_15_7) AppleWebKit/537.36 (KHTML, like Gecko) Chrome/124.0.0.0 Safari/537.36" version="24.2.5" etag="U88UfDYkxRWKdkRYtM-x" type="github">
  <diagram name="Page-1" id="P8EWKRteo-P0vPdX7Nql">
    <mxGraphModel>
      <root>
        <mxCell id="0" />
        <mxCell id="1" parent="0" />
      </root>
    </mxGraphModel>
  </diagram>
</mxfile>
